<svg xmlns="http://www.w3.org/2000/svg" viewBox="0 0 128 128" role="img" aria-labelledby="title desc">
  <title id="title">Compliance Crawler logo - cream, radar + table</title>
  <desc id="desc">Cream notepad; C path; teal table with rows; wide radar sweep arc (strong scan metaphor).</desc>
  <rect x="0" y="0" width="128" height="128" fill="#faf6ef"/>
  <line x1="14" y1="40" x2="114" y2="40" stroke="#e5dfd4" stroke-width="0.75"/>
  <line x1="14" y1="64" x2="114" y2="64" stroke="#e5dfd4" stroke-width="0.75"/>
  <line x1="14" y1="88" x2="114" y2="88" stroke="#e5dfd4" stroke-width="0.75"/>
  <path d="M 102 42 A 44 44 0 1 0 102 86 L 88 78 A 28 28 0 1 0 88 50 Z" fill="#145DA0"/>
  <rect x="70" y="52" width="22" height="24" rx="2" ry="2" fill="none" stroke="#21A179" stroke-width="2"/>
  <line x1="72" y1="58" x2="90" y2="58" stroke="#21A179" stroke-width="1.2"/>
  <line x1="72" y1="64" x2="90" y2="64" stroke="#21A179" stroke-width="1.2"/>
  <line x1="72" y1="70" x2="90" y2="70" stroke="#21A179" stroke-width="1.2"/>
  <rect x="72" y="53" width="18" height="4" fill="#21A179" opacity="0.85"/>
  <path d="M 64 22 A 42 42 0 0 1 24 64" fill="none" stroke="#145DA0" stroke-width="6" stroke-linecap="round" opacity="0.45"/>
  <path d="M 64 24 A 40 40 0 0 1 26 64" fill="none" stroke="#145DA0" stroke-width="3" stroke-linecap="round" opacity="0.6"/>
</svg>
